opt_results/elbow_flexion_20
nRows=20
nColumns=15
endheader
time  TH_x  TH_y  TH_z  SC_y  SC_z  SC_x  AC_y  AC_z  AC_x  GH_y  GH_z  GH_yy  EL_x  PS_y
0.000000  0.000000  0.000000  0.000000  -21.244878  7.548297  12.757544  35.555582  -24.939708  -17.945793  24.964995  28.511398  15.257275  43.580982  84.118281
0.052632  0.000000  0.000000  0.000000  -21.244878  7.548297  12.757544  35.555582  -24.939708  -17.945793  24.964995  28.511398  15.257275  45.686238  83.508576
0.105263  0.000000  0.000000  0.000000  -21.244878  7.548297  12.757544  35.555582  -24.939708  -17.945793  24.964995  28.511398  15.257275  47.791497  83.043058
0.157895  0.000000  0.000000  0.000000  -21.244878  7.548297  12.757544  35.555582  -24.939708  -17.945793  24.964995  28.511398  15.257275  49.896758  82.629617
0.210526  0.000000  0.000000  0.000000  -21.244878  7.548297  12.757544  35.555582  -24.939708  -17.945793  24.964995  28.511398  15.257275  52.002019  82.056835
0.263158  0.000000  0.000000  0.000000  -21.244878  7.548297  12.757544  35.555582  -24.939708  -17.945793  24.964995  28.511398  15.257275  54.107281  81.614627
0.315789  0.000000  0.000000  0.000000  -21.244878  7.548297  12.757544  35.555582  -24.939708  -17.945793  24.964995  28.511398  15.257275  56.212543  81.313660
0.368421  0.000000  0.000000  0.000000  -21.244878  7.548297  12.757544  35.555582  -24.939708  -17.945793  24.964995  28.511398  15.257275  58.317804  81.071581
0.421053  0.000000  0.000000  0.000000  -21.244878  7.548297  12.757544  35.555582  -24.939708  -17.945793  24.964995  28.511398  15.257275  60.423066  80.854689
0.473684  0.000000  0.000000  0.000000  -21.244878  7.548297  12.757544  35.555582  -24.939708  -17.945793  24.964995  28.511398  15.257275  62.528328  80.743562
0.526316  0.000000  0.000000  0.000000  -21.244878  7.548297  12.757544  35.555582  -24.939708  -17.945793  24.964995  28.511398  15.257275  64.633590  80.600902
0.578947  0.000000  0.000000  0.000000  -21.244878  7.548297  12.757544  35.555582  -24.939708  -17.945793  24.964995  28.511398  15.257275  66.738852  80.558265
0.631579  0.000000  0.000000  0.000000  -21.244878  7.548297  12.757544  35.555582  -24.939708  -17.945793  24.964995  28.511398  15.257275  68.844114  80.427744
0.684211  0.000000  0.000000  0.000000  -21.244878  7.548297  12.757544  35.555582  -24.939708  -17.945793  24.964995  28.511398  15.257275  70.949376  80.405053
0.736842  0.000000  0.000000  0.000000  -21.244878  7.548297  12.757544  35.555582  -24.939708  -17.945793  24.964995  28.511398  15.257275  73.054638  80.232618
0.789474  0.000000  0.000000  0.000000  -21.244878  7.548297  12.757544  35.555582  -24.939708  -17.945793  24.964995  28.511398  15.257275  75.159899  80.186830
0.842105  0.000000  0.000000  0.000000  -21.244878  7.548297  12.757544  35.555582  -24.939708  -17.945793  24.964995  28.511398  15.257275  77.265160  79.953555
0.894737  0.000000  0.000000  0.000000  -21.244878  7.548297  12.757544  35.555582  -24.939708  -17.945793  24.964995  28.511398  15.257275  79.370421  79.800893
0.947368  0.000000  0.000000  0.000000  -21.244878  7.548297  12.757544  35.555582  -24.939708  -17.945793  24.964995  28.511398  15.257275  81.475680  79.382021
1.000000  0.000000  0.000000  0.000000  -21.244878  7.548297  12.757544  35.555582  -24.939708  -17.945793  24.964995  28.511398  15.257275  82.782523  78.894220
